<svg xmlns="http://www.w3.org/2000/svg" height="800" width="800" fill="green"><circle class="expenditure" r="14.206094033628936" cx="342.13916666666665" cy="501.01" fill="#166887" stroke="#BBB" fill-opacity="0.85"/><circle class="expenditure" r="11.518488148657758" cx="335.74" cy="427.9533333333333" fill="#206f8c" stroke="#BBB" fill-opacity="0.85"/><circle class="expenditure" r="6.583620701290554" cx="403.43" cy="479.75333333333333" fill="#4889a1" stroke="#BBB" fill-opacity="0.85"/><circle class="expenditure" r="7.272553249666224" cx="234.135" cy="621.3225" fill="#4b8ba2" stroke="#BBB" fill-opacity="0.85"/><circle class="expenditure" r="10.949453094877528" cx="286.4483333333333" cy="561.4024999999999" fill="#5490a7" stroke="#BBB" fill-opacity="0.85"/><circle class="expenditure" r="8.456527747158495" cx="460.7425" cy="375.9433333333333" fill="#5c95ab" stroke="#BBB" fill-opacity="0.85"/><circle class="expenditure" r="8.01950314977373" cx="283.80583333333334" cy="571.3133333333333" fill="#629aae" stroke="#BBB" fill-opacity="0.85"/><circle class="expenditure" r="8.126496075279828" cx="414.56583333333333" cy="383.795" fill="#86b1c1" stroke="#BBB" fill-opacity="0.85"/><circle class="expenditure" r="9.951200932550805" cx="302.56583333333333" cy="612.7941666666667" fill="#96bbc9" stroke="#BBB" fill-opacity="0.85"/><circle class="expenditure" r="4.94652014435012" cx="214.0275" cy="624" fill="#9ec0cd" stroke="#BBB" fill-opacity="0.85"/><circle class="expenditure" r="7.062176609342084" cx="319.6341666666667" cy="505.2391666666666" fill="#c3d8e0" stroke="#BBB" fill-opacity="0.85"/><circle class="expenditure" r="13.40098274237895" cx="228.73333333333335" cy="579.4449999999999" fill="#cadde4" stroke="#BBB" fill-opacity="0.85"/><circle class="expenditure" r="18.856135504229016" cx="457.2366666666667" cy="445.6925" fill="#d3e3e8" stroke="#BBB" fill-opacity="0.85"/><circle class="expenditure" r="5.539458457286235" cx="414.9741666666667" cy="411.96416666666664" fill="#dae7ec" stroke="#BBB" fill-opacity="0.85"/><circle class="expenditure" r="13.729236630692123" cx="226.8841666666667" cy="604.3183333333334" fill="#e6eff2" stroke="#BBB" fill-opacity="0.85"/><circle class="expenditure" r="6.220145929527327" cx="682.0825000000001" cy="411.45666666666665" fill="#fffefe" stroke="#BBB" fill-opacity="0.85"/><circle class="expenditure" r="18.27253508579306" cx="313.725" cy="569.6625" fill="#fefaf6" stroke="#BBB" fill-opacity="0.85"/><circle class="expenditure" r="12.851870860516167" cx="385.24750000000006" cy="469.0958333333333" fill="#fbede1" stroke="#BBB" fill-opacity="0.85"/><circle class="expenditure" r="7.962662871175697" cx="304.3566666666667" cy="501.5816666666667" fill="#f9e3d0" stroke="#BBB" fill-opacity="0.85"/><circle class="expenditure" r="10.651971287404614" cx="661.5608333333334" cy="300.39" fill="#f8dbc1" stroke="#BBB" fill-opacity="0.85"/><circle class="expenditure" r="9.484958132181227" cx="231.88333333333335" cy="593.5733333333333" fill="#f7dac0" stroke="#BBB" fill-opacity="0.85"/><circle class="expenditure" r="6.464925485917184" cx="367.15250000000003" cy="497.7025" fill="#f5cfad" stroke="#BBB" fill-opacity="0.85"/><circle class="expenditure" r="13.842125225890378" cx="362.8066666666667" cy="478.06166666666667" fill="#f5cdaa" stroke="#BBB" fill-opacity="0.85"/><circle class="expenditure" r="21.865047626115697" cx="285.8591666666667" cy="544.62" fill="#f2bf92" stroke="#BBB" fill-opacity="0.85"/><circle class="expenditure" r="8.127870380553379" cx="246.02333333333334" cy="565.305" fill="#eeab6f" stroke="#BBB" fill-opacity="0.85"/><line class="xaxis" y1="750" y2="750" x1="50" x2="750" stroke="gray"/><line class="xtick" y1="750" y2="757" x1="50" x2="50" stroke="gray"/><line class="xtick" y1="750" y2="757" x1="108.33333333333334" x2="108.33333333333334" stroke="gray"/><line class="xtick" y1="750" y2="757" x1="166.66666666666669" x2="166.66666666666669" stroke="gray"/><line class="xtick" y1="750" y2="757" x1="225" x2="225" stroke="gray"/><line class="xtick" y1="750" y2="757" x1="283.33333333333337" x2="283.33333333333337" stroke="gray"/><line class="xtick" y1="750" y2="757" x1="341.6666666666667" x2="341.6666666666667" stroke="gray"/><line class="xtick" y1="750" y2="757" x1="400" x2="400" stroke="gray"/><line class="xtick" y1="750" y2="757" x1="458.33333333333337" x2="458.33333333333337" stroke="gray"/><line class="xtick" y1="750" y2="757" x1="516.6666666666667" x2="516.6666666666667" stroke="gray"/><line class="xtick" y1="750" y2="757" x1="575" x2="575" stroke="gray"/><line class="xtick" y1="750" y2="757" x1="633.3333333333334" x2="633.3333333333334" stroke="gray"/><line class="xtick" y1="750" y2="757" x1="691.6666666666667" x2="691.6666666666667" stroke="gray"/><line class="xtick" y1="750" y2="757" x1="750" x2="750" stroke="gray"/><text class="xtick_label" x="50" y="750" fill="gray" font-size="10px" transform="rotate(320 78,750)" text-anchor="end">0</text><text class="xtick_label" x="108.33333333333334" y="750" fill="gray" font-size="10px" transform="rotate(320 136.33333333333334,750)" text-anchor="end">10000</text><text class="xtick_label" x="166.66666666666669" y="750" fill="gray" font-size="10px" transform="rotate(320 194.66666666666669,750)" text-anchor="end">20000</text><text class="xtick_label" x="225" y="750" fill="gray" font-size="10px" transform="rotate(320 253,750)" text-anchor="end">30000</text><text class="xtick_label" x="283.33333333333337" y="750" fill="gray" font-size="10px" transform="rotate(320 311.33333333333337,750)" text-anchor="end">40000</text><text class="xtick_label" x="341.6666666666667" y="750" fill="gray" font-size="10px" transform="rotate(320 369.6666666666667,750)" text-anchor="end">50000</text><text class="xtick_label" x="400" y="750" fill="gray" font-size="10px" transform="rotate(320 428,750)" text-anchor="end">60000</text><text class="xtick_label" x="458.33333333333337" y="750" fill="gray" font-size="10px" transform="rotate(320 486.33333333333337,750)" text-anchor="end">70000</text><text class="xtick_label" x="516.6666666666667" y="750" fill="gray" font-size="10px" transform="rotate(320 544.6666666666667,750)" text-anchor="end">80000</text><text class="xtick_label" x="575" y="750" fill="gray" font-size="10px" transform="rotate(320 603,750)" text-anchor="end">90000</text><text class="xtick_label" x="633.3333333333334" y="750" fill="gray" font-size="10px" transform="rotate(320 661.3333333333334,750)" text-anchor="end">100000</text><text class="xtick_label" x="691.6666666666667" y="750" fill="gray" font-size="10px" transform="rotate(320 719.6666666666667,750)" text-anchor="end">110000</text><text class="xtick_label" x="750" y="750" fill="gray" font-size="10px" transform="rotate(320 778,750)" text-anchor="end">120000</text><line class="yaxis" x1="50" x2="50" y1="50" y2="750" stroke="gray"/><line class="ytick" y1="750" y2="750" x1="43" x2="50" stroke="gray"/><line class="ytick" y1="691.6666666666666" y2="691.6666666666666" x1="43" x2="50" stroke="gray"/><line class="ytick" y1="633.3333333333333" y2="633.3333333333333" x1="43" x2="50" stroke="gray"/><line class="ytick" y1="575" y2="575" x1="43" x2="50" stroke="gray"/><line class="ytick" y1="516.6666666666666" y2="516.6666666666666" x1="43" x2="50" stroke="gray"/><line class="ytick" y1="458.3333333333333" y2="458.3333333333333" x1="43" x2="50" stroke="gray"/><line class="ytick" y1="400" y2="400" x1="43" x2="50" stroke="gray"/><line class="ytick" y1="341.66666666666663" y2="341.66666666666663" x1="43" x2="50" stroke="gray"/><line class="ytick" y1="283.33333333333326" y2="283.33333333333326" x1="43" x2="50" stroke="gray"/><line class="ytick" y1="225" y2="225" x1="43" x2="50" stroke="gray"/><line class="ytick" y1="166.66666666666663" y2="166.66666666666663" x1="43" x2="50" stroke="gray"/><line class="ytick" y1="108.33333333333326" y2="108.33333333333326" x1="43" x2="50" stroke="gray"/><line class="ytick" y1="50" y2="50" x1="43" x2="50" stroke="gray"/><text class="ytick_label" y="752.8571428571429" x="39.5" fill="gray" font-size="10px" text-anchor="end">0</text><text class="ytick_label" y="694.5238095238095" x="39.5" fill="gray" font-size="10px" text-anchor="end">10000</text><text class="ytick_label" y="636.1904761904761" x="39.5" fill="gray" font-size="10px" text-anchor="end">20000</text><text class="ytick_label" y="577.8571428571429" x="39.5" fill="gray" font-size="10px" text-anchor="end">30000</text><text class="ytick_label" y="519.5238095238095" x="39.5" fill="gray" font-size="10px" text-anchor="end">40000</text><text class="ytick_label" y="461.19047619047615" x="39.5" fill="gray" font-size="10px" text-anchor="end">50000</text><text class="ytick_label" y="402.85714285714283" x="39.5" fill="gray" font-size="10px" text-anchor="end">60000</text><text class="ytick_label" y="344.52380952380946" x="39.5" fill="gray" font-size="10px" text-anchor="end">70000</text><text class="ytick_label" y="286.1904761904761" x="39.5" fill="gray" font-size="10px" text-anchor="end">80000</text><text class="ytick_label" y="227.85714285714286" x="39.5" fill="gray" font-size="10px" text-anchor="end">90000</text><text class="ytick_label" y="169.5238095238095" x="39.5" fill="gray" font-size="10px" text-anchor="end">100000</text><text class="ytick_label" y="111.19047619047612" x="39.5" fill="gray" font-size="10px" text-anchor="end">110000</text><text class="ytick_label" y="52.857142857142854" x="39.5" fill="gray" font-size="10px" text-anchor="end">120000</text></svg>